<svg width="128" height="128" viewBox="0 0 128 128" fill="none" xmlns="http://www.w3.org/2000/svg">
<path d="M55.42 4.52999C31.82 7.74999 32.99 29.5 32.96 33.68C32.92 37.85 35.11 72 38.99 79.5C42.14 85.59 55.99 82.32 55.99 82.32L67 80.57L75.59 79.23C75.59 79.23 80.26 78.42 82.23 74.51C87.21 64.65 87.5 41.42 85 25.49C84.93 25.1 82.1 0.889986 55.42 4.52999Z" fill="#312D2D"/>
<path d="M55.42 4.52999C31.82 7.74999 32.99 29.5 32.96 33.68C32.92 37.85 35.11 72 38.99 79.5C42.14 85.59 55.99 82.32 55.99 82.32L67 80.57L75.59 79.23C75.59 79.23 80.26 78.42 82.23 74.51C87.21 64.65 87.5 41.42 85 25.49C84.93 25.1 82.1 0.889986 55.42 4.52999Z" fill="url(#paint0_radial_1_27)"/>
<path d="M109.89 106.15C106.93 95.1 103.5 86.88 96.32 77.98C93.37 74.32 87.74 69.53 79.74 68.15C74.73 67.29 58.02 67.42 53.11 67.83C37.84 69.12 32.95 74.02 28.41 90.43C26.38 97.76 25.08 104.74 25.03 110.35C24.95 119.64 28.05 122.5 34.32 123.68C38.28 124.43 49.89 124.22 56.43 122.01C61.3 120.37 71.04 121.3 75.15 124.82C75.88 125.45 77.23 125.5 78.31 125.45C78.31 125.45 82.93 124.98 89.01 124.33C94.36 123.75 100.23 123.42 105.34 121.72C113.62 118.98 110.47 108.32 109.89 106.15ZM88.56 110.17C89.83 105.21 89.24 95.63 89.24 95.63C89.73 99.28 96.18 108.48 96.18 108.48L88.56 110.17Z" fill="url(#paint1_linear_1_27)"/>
<path d="M75.27 67.73L71.5 67.51C71.5 67.48 70.8 60.17 70.8 60.17L63.69 61.29L57.79 61.83L57.45 67.44L53.11 67.83C51.74 70.33 53.94 76.91 50.74 83.16C48.6 87.34 42.53 90.25 43.11 95.41C44.47 107.54 55.91 109.94 65.6 109.49C75.29 109.03 79.74 107 79.74 107C70.86 91.25 75.27 67.73 75.27 67.73Z" fill="url(#paint2_linear_1_27)"/>
<path d="M62.51 101.4C62.26 101.4 62.01 101.32 61.8 101.17C61.32 100.81 61.25 100.17 61.65 99.73C64.98 96.03 64.98 89.44 62.46 85.84C62.01 85.2 61.5 84.58 61.86 84.28C62.21 83.99 62.69 84.21 63.09 84.64C66.78 88.6 68.4 96.09 63.87 100.88C63.63 101.12 62.83 101.4 62.51 101.4Z" fill="#EDBD82"/>
<path d="M73.1 115.25L63.88 117.54L52.38 122.62C52.38 122.62 57.78 124.25 60.87 124.82C67.17 125.97 75.18 124.84 75.18 124.84C75.18 124.84 73.47 121.86 73.12 119.51C72.76 117.16 73.1 115.25 73.1 115.25Z" fill="url(#paint3_linear_1_27)"/>
<path d="M59.19 124.46L73.17 119.86C73.15 119.74 73.12 119.62 73.1 119.5C72.75 117.15 73.09 115.25 73.09 115.25L63.87 117.54L52.37 122.62C52.37 122.62 56.15 123.76 59.19 124.46Z" fill="url(#paint4_linear_1_27)"/>
<path d="M34.97 108.44C37.2 108.16 39.56 108.45 41.52 108.82C43.28 109.11 46.01 109.9 48.93 110.25C49.62 110.3 50.31 110.32 50.97 110.32C54.1 109.47 54.83 107.36 55.87 103.91C56.99 100.21 56.69 96.6 54.88 93.62C52.17 89.19 47.46 86.58 43.15 87.13C41.57 87.33 38.8 87.71 37.37 88.7C33.82 91.16 32.1 94.64 31.44 97.83C31.2 98.98 30.17 105.33 34.97 108.44Z" fill="#C5E1A5"/>
<path d="M36.02 87.46C33.49 89.45 32.03 92.31 32.47 94.62C33.21 93.32 33.71 91.49 36.71 89.69C43.31 85.71 50.49 88.66 53.2 95.31C56.23 102.75 51.48 110.36 51.48 110.36C54.6 109.78 55.5 108.25 55.5 108.25C60.2 103.22 60.8 96.4 56.01 90.14C51.24 83.88 42.89 82.06 36.02 87.46Z" fill="#FAFAFA"/>
<path d="M54.48 108.41C55.84 106.65 57.63 102.34 59.23 99.76C61.83 95.57 67.36 93.01 73.74 94.66C81.36 96.63 83.98 100.69 85.36 101.58C86.74 102.47 92.65 99.79 96.7 109.16C96.7 109.16 91.94 109.39 89.82 110.18C86.34 111.48 80.68 114.61 76.98 114.93C67.62 115.74 59.33 110.02 59.33 110.02C56.51 109.88 51.49 110.34 51.49 110.34C51.49 110.34 53.12 110.17 54.48 108.41Z" fill="#BDBDBD"/>
<path d="M41.53 105.03C46.34 105.28 51.3 102.13 54.08 98.15C54.93 98.52 55.94 98.37 56.77 97.97C57.6 97.56 58.29 96.91 58.95 96.26C59.59 98.39 59.24 99.78 59.24 99.78C59.9 100.92 61.34 101.01 62.67 100.18C64.05 99.32 65.88 103.43 65.88 103.43C68.79 102.14 72.1 99.43 72.84 98.94C73.58 98.45 75.64 99.45 75.32 100.47C74.94 101.71 74.53 102.21 74.21 103.47C75.59 102.8 77.66 101.56 78.23 101.22C79.67 100.36 81.46 101.05 81.25 103.47C81.2 104 80.49 108.25 80.35 108.2C84.23 109.63 90.97 107.17 93.8 109.43C93 109.53 89.54 110.16 87.42 111.24C78.34 115.85 76.11 114.9 74.2 115.32C71.87 115.84 57.76 111.57 54.99 110.82C52.95 110.26 50.39 110.53 48.23 110.31C43.53 109.84 39.31 108.67 33.68 109.88C32.93 110.04 29.35 110.79 29.21 111.14C30.33 108.31 29.26 106.1 29.72 103.09C30.14 100.35 31.31 99.59 31.23 99.28C31.25 99.29 31.86 104.52 41.53 105.03Z" fill="url(#paint5_linear_1_27)"/>
<path d="M59.1 110.51C59.18 105.58 62.22 104.99 62.9 100.54C62.94 100.25 65.19 98.94 65.49 101.85C65.61 103.07 65.3 104.35 64.78 105.46C64.54 105.97 64.66 106.65 66.75 105.67C69.85 104.22 71.24 101.67 72.83 99.78C73.25 99.28 74.06 99.15 74.5 99.35C75.19 99.66 75.56 100.22 75.09 101.6C74.18 104.27 71.53 106.78 71.53 106.78C73.81 106.58 76.16 104.51 77.85 102.97C78.56 102.32 79.07 101.56 79.96 101.67C80.99 101.79 81.15 103.47 80.58 104.5C80.26 105.1 80.18 105.32 80.18 105.32C80.18 105.32 81.22 106.68 80.9 107.72C80.67 108.48 80.02 109.44 80.02 109.44C79.48 111.46 78.21 112.7 74.6 115.15C69.36 118.72 61.6 119.93 61.6 119.93C61.98 114.19 59.1 110.51 59.1 110.51Z" fill="url(#paint6_linear_1_27)"/>
<path d="M80.91 102.87C80.54 103.96 79.84 105.15 79.26 105.94C77.26 108.66 73.57 109.93 73.75 110.31C73.93 110.69 77.94 109.43 79.54 107.01C81.31 104.33 80.91 102.87 80.91 102.87ZM80.82 106.38C80.82 106.38 81.03 108.22 78.24 110.72C76.99 111.85 74.51 113.07 74.51 113.07C74.51 113.07 76.95 112.9 78.68 111.26C81.05 109.01 80.94 108.37 81.04 107.69C81.13 107.04 80.82 106.38 80.82 106.38Z" fill="#EDBD82"/>
<path d="M61.14 111.75C59.19 108.82 57.09 109.87 54.59 110.15C53.74 110.25 51.27 110.42 48.93 110.24C46.01 109.89 43.28 109.11 41.52 108.81C37.55 108.07 31.98 107.63 29.12 111.61C26.26 115.59 28.41 120.52 32.47 122.27C38.87 125.03 50.11 123.82 58.28 121.52C64.21 119.84 63.11 114.7 61.14 111.75Z" fill="url(#paint7_linear_1_27)"/>
<path d="M55.98 12.37C44.84 14.25 35.92 24.27 38.88 41.83C41.26 55.94 51.4 62.81 59.46 64.22C61.38 64.56 63.19 64.58 64.74 64.32C66.28 64.06 67.97 63.45 69.66 62.51C76.82 58.55 84.17 48.72 81.79 34.6C78.83 17.03 67.12 10.49 55.98 12.37Z" fill="#F9DDBD"/>
<path d="M67.79 50.46C65.94 51.99 59.25 53.05 57.01 52.15C55.73 51.64 54.7 52.89 55.35 53.88C55.99 54.85 60.03 56.71 63.18 56.21C66.34 55.71 69.56 52.72 69.87 51.59C70.2 50.46 68.85 49.58 67.79 50.46Z" fill="#444444"/>
<path d="M63.84 44.38C63.77 44.36 63.7 44.36 63.62 44.36L59.09 45.07C59.02 45.09 58.96 45.12 58.89 45.15C58.51 45.38 58.35 45.84 58.61 46.27C58.87 46.7 59.98 47.82 61.8 47.54C63.62 47.25 64.32 45.84 64.44 45.35C64.57 44.87 64.28 44.48 63.84 44.38Z" fill="#DBA689"/>
<path d="M50.16 42.71C48.83 42.92 47.58 42.78 46.67 42.4C46.28 42.23 46.09 42.4 46.22 42.8C46.72 44.37 48.55 45.36 50.53 45.05C52.51 44.74 53.95 43.24 53.94 41.59C53.94 41.17 53.71 41.06 53.39 41.34C52.64 41.99 51.5 42.5 50.16 42.71ZM71.32 39.38C69.99 39.59 68.74 39.45 67.83 39.07C67.44 38.9 67.25 39.07 67.38 39.47C67.88 41.04 69.71 42.03 71.69 41.72C73.67 41.41 75.11 39.91 75.1 38.26C75.1 37.84 74.87 37.73 74.55 38.01C73.8 38.66 72.65 39.17 71.32 39.38Z" fill="#312D2D"/>
<path d="M53.86 35.15C53.13 34.45 51.56 33.51 48.86 33.93C46.16 34.35 44.95 35.73 44.48 36.62C44.27 37.01 44.4 37.41 44.62 37.63C44.83 37.83 45.36 37.96 45.89 37.69C46.42 37.42 47.42 36.68 49.24 36.38C51.07 36.11 52.25 36.5 52.83 36.6C53.41 36.7 53.89 36.41 54.02 36.16C54.18 35.88 54.18 35.47 53.86 35.15ZM74.94 31.84C74.21 31.14 72.64 30.2 69.94 30.62C67.24 31.04 66.03 32.42 65.56 33.31C65.35 33.7 65.48 34.1 65.7 34.32C65.91 34.52 66.45 34.65 66.97 34.38C67.49 34.11 68.5 33.37 70.32 33.07C72.15 32.8 73.33 33.19 73.91 33.29C74.5 33.39 74.97 33.1 75.1 32.85C75.26 32.57 75.26 32.15 74.94 31.84Z" fill="#454140"/>
<path d="M83.27 28.28C82.71 23.22 78.86 3.41999 55.15 6.66999C33.15 9.68999 34.94 31.75 35.23 36.69C35.44 40.39 35.94 47.68 36.45 51.75C36.98 56.03 41.43 56.95 41.43 56.95C41.43 56.95 41.41 50.69 41.12 44.67C40.86 39.33 40.91 34.92 43.33 34.02C57.44 28.79 64.32 19.49 64.32 19.49C67.19 23.82 74.58 27.31 77.25 28.66C79.44 29.77 80.09 35.66 80.44 38.15L79.77 55.93C79.77 55.93 84.12 53.28 84.42 48.89C84.69 44.86 83.83 33.34 83.27 28.28Z" fill="#312D2D"/>
<path d="M83.27 28.28C82.71 23.22 78.86 3.41999 55.15 6.66999C33.15 9.68999 34.94 31.75 35.23 36.69C35.44 40.39 35.94 47.68 36.45 51.75C36.98 56.03 41.43 56.95 41.43 56.95C41.43 56.95 41.41 50.69 41.12 44.67C40.86 39.33 40.91 34.92 43.33 34.02C57.44 28.79 64.32 19.49 64.32 19.49C67.19 23.82 74.58 27.31 77.25 28.66C79.44 29.77 80.09 35.66 80.44 38.15L79.77 55.93C79.77 55.93 84.12 53.28 84.42 48.89C84.69 44.86 83.83 33.34 83.27 28.28Z" fill="url(#paint8_radial_1_27)"/>
<path d="M88.24 92.14C88.24 92.14 93.12 99.77 96.57 103.77C100.02 107.77 101.55 109.44 101.55 109.44C101.55 109.44 99.69 109.42 96.92 109.54C96.92 109.54 95.09 105.12 93.28 104.18C93.27 104.18 88.89 96.89 88.24 92.14Z" fill="url(#paint9_linear_1_27)"/>
<defs>
<radialGradient id="paint0_radial_1_27" cx="0" cy="0" r="1" gradientUnits="userSpaceOnUse" gradientTransform="translate(60.5777 41.7901) rotate(85.6258) scale(37.3512 31.6596)">
<stop offset="0.799" stop-color="#454140" stop-opacity="0"/>
<stop offset="1" stop-color="#454140"/>
</radialGradient>
<linearGradient id="paint1_linear_1_27" x1="68" y1="67.511" x2="68" y2="124.264" gradientUnits="userSpaceOnUse">
<stop stop-color="#651FFF"/>
<stop offset="1" stop-color="#530EEB"/>
</linearGradient>
<linearGradient id="paint2_linear_1_27" x1="61.407" y1="104.093" x2="61.407" y2="61.974" gradientUnits="userSpaceOnUse">
<stop offset="0.5" stop-color="#F9DDBD"/>
<stop offset="1" stop-color="#FFD29C"/>
</linearGradient>
<linearGradient id="paint3_linear_1_27" x1="42.847" y1="120.289" x2="65.644" y2="120.289" gradientUnits="userSpaceOnUse">
<stop offset="0.5" stop-color="#F9DDBD"/>
<stop offset="1" stop-color="#FFD29C"/>
</linearGradient>
<linearGradient id="paint4_linear_1_27" x1="62.159" y1="117.359" x2="64.678" y2="124.259" gradientUnits="userSpaceOnUse">
<stop offset="0.21" stop-color="#212121" stop-opacity="0.4"/>
<stop offset="0.709" stop-color="#252525" stop-opacity="0"/>
</linearGradient>
<linearGradient id="paint5_linear_1_27" x1="59.651" y1="114.934" x2="63.493" y2="98.95" gradientUnits="userSpaceOnUse">
<stop offset="0.21" stop-color="#212121" stop-opacity="0.4"/>
<stop offset="1" stop-color="#252525" stop-opacity="0"/>
</linearGradient>
<linearGradient id="paint6_linear_1_27" x1="59.029" y1="110.646" x2="81.4812" y2="107.181" gradientUnits="userSpaceOnUse">
<stop offset="0.5" stop-color="#F9DDBD"/>
<stop offset="1" stop-color="#FFD29C"/>
</linearGradient>
<linearGradient id="paint7_linear_1_27" x1="55.066" y1="116.094" x2="31.842" y2="116.094" gradientUnits="userSpaceOnUse">
<stop offset="0.294" stop-color="#651FFF"/>
<stop offset="1" stop-color="#641EFE" stop-opacity="0"/>
</linearGradient>
<radialGradient id="paint8_radial_1_27" cx="0" cy="0" r="1" gradientUnits="userSpaceOnUse" gradientTransform="translate(60.5454 42.9592) rotate(-96.3325) scale(40.0605 31.9421)">
<stop offset="0.789" stop-color="#454140" stop-opacity="0"/>
<stop offset="1" stop-color="#454140"/>
</radialGradient>
<linearGradient id="paint9_linear_1_27" x1="93.542" y1="106.398" x2="96.102" y2="95.748" gradientUnits="userSpaceOnUse">
<stop offset="0.21" stop-color="#212121" stop-opacity="0.4"/>
<stop offset="1" stop-color="#252525" stop-opacity="0"/>
</linearGradient>
</defs>
</svg>
